<svg width="84" height="28" viewBox="0 0 84 28" fill="none" xmlns="http://www.w3.org/2000/svg">
<g filter="url(#filter0_d_708_5244)">
<path fill-rule="evenodd" clip-rule="evenodd" d="M17.3624 12.3432H20.9952V15.8664H17.3624V12.3432ZM17.3624 7.77019H20.9952V10.2334H17.3624V7.77019ZM16.2731 5.65524H14.0892V6.00859H13.7244V7.41685H14.0892V7.77019H15.1785V15.5131H14.0892V15.8664H13.7244V17.628H14.0892V17.9762H16.2731V20.0912H18.0869V17.9762H19.1762V20.0912H20.9952V17.9762H21.7249V16.5731H23.1791V11.6416H22.8142V11.2883H21.7249V10.9401H22.8142V10.5867H23.1791V7.0635H21.7249V5.65524H20.9952V3.54541H19.1762V5.65524H18.0869V3.54541H16.2731V5.65524V5.65524Z" fill="#FFB800"/>
</g>
<g filter="url(#filter1_d_708_5244)">
<circle cx="18.4517" cy="11.8184" r="10.4593" stroke="#FFB800" stroke-width="2.71823" shape-rendering="crispEdges"/>
</g>
<g filter="url(#filter2_d_708_5244)">
<path d="M36.8264 17.9317V14.7874H33.682V12.2719H36.8264V9.12756H39.3419V12.2719H42.4862V14.7874H39.3419V17.9317H36.8264ZM50.5888 20.028C50.0578 20.028 49.5617 20.014 49.1005 19.9861C48.6533 19.9581 48.234 19.9162 47.8427 19.8603L44.363 18.6864L45.4111 14.7245L50.1696 15.8774C50.8404 15.8774 51.3295 15.7656 51.6369 15.542C51.9444 15.3045 52.0981 14.9691 52.0981 14.5358C52.0981 14.2424 51.9374 13.9838 51.616 13.7602C51.3085 13.5227 50.7635 13.4039 49.9809 13.4039L45.2015 13.4039V4.97702H56.2067V8.51966L50.9661 8.31003H50.0857V9.90317H51.4902C53.4327 9.90317 54.8442 10.3154 55.7246 11.1399C56.605 11.9645 57.0452 13.1593 57.0452 14.7245C57.0452 16.3735 56.5002 17.6732 55.4101 18.6235C54.3201 19.5598 52.713 20.028 50.5888 20.028ZM63.3824 11.9156C62.4041 11.9156 61.6006 11.7548 60.9717 11.4334C60.3428 11.098 59.8817 10.6578 59.5882 10.1128C59.2947 9.5538 59.148 8.93192 59.148 8.24715C59.148 7.56238 59.2947 6.94748 59.5882 6.40246C59.8817 5.84346 60.3428 5.40326 60.9717 5.08183C61.6006 4.74643 62.4041 4.57874 63.3824 4.57874C64.3467 4.57874 65.1432 4.74643 65.7721 5.08183C66.401 5.40326 66.8621 5.84346 67.1556 6.40246C67.4631 6.94748 67.6168 7.56238 67.6168 8.24715C67.6168 8.93192 67.4631 9.5538 67.1556 10.1128C66.8621 10.6578 66.401 11.098 65.7721 11.4334C65.1432 11.7548 64.3467 11.9156 63.3824 11.9156ZM60.6573 19.8184V18.5606L67.7635 11.0771L70.8031 4.99798L75.5405 4.99798V6.25572L68.8745 13.1523L65.3948 19.8184L60.6573 19.8184ZM63.3824 9.19045C63.7877 9.19045 64.0392 9.07865 64.137 8.85505C64.2488 8.63146 64.3047 8.42882 64.3047 8.24715C64.3047 8.06547 64.2488 7.86284 64.137 7.63924C64.0392 7.41564 63.7877 7.30384 63.3824 7.30384C62.9631 7.30384 62.7046 7.41564 62.6068 7.63924C62.509 7.86284 62.46 8.06547 62.46 8.24715C62.46 8.42882 62.509 8.63146 62.6068 8.85505C62.7046 9.07865 62.9631 9.19045 63.3824 9.19045ZM72.6058 20.2376C71.6276 20.2376 70.824 20.0769 70.1951 19.7555C69.5663 19.4201 69.1051 18.9729 68.8116 18.4139C68.5182 17.8549 68.3714 17.24 68.3714 16.5692C68.3714 15.8844 68.5182 15.2695 68.8116 14.7245C69.1051 14.1655 69.5663 13.7253 70.1951 13.4039C70.824 13.0685 71.6276 12.9008 72.6058 12.9008C73.5701 12.9008 74.3667 13.0685 74.9955 13.4039C75.6244 13.7253 76.0856 14.1655 76.379 14.7245C76.6865 15.2695 76.8402 15.8844 76.8402 16.5692C76.8402 17.24 76.6865 17.8549 76.379 18.4139C76.0856 18.9729 75.6244 19.4201 74.9955 19.7555C74.3667 20.0769 73.5701 20.2376 72.6058 20.2376ZM72.6058 17.5125C73.0111 17.5125 73.2626 17.4007 73.3605 17.1771C73.4723 16.9535 73.5282 16.7509 73.5282 16.5692C73.5282 16.3875 73.4723 16.1849 73.3605 15.9613C73.2626 15.7377 73.0111 15.6259 72.6058 15.6259C72.1866 15.6259 71.928 15.7377 71.8302 15.9613C71.7324 16.1849 71.6835 16.3875 71.6835 16.5692C71.6835 16.7509 71.7324 16.9535 71.8302 17.1771C71.928 17.4007 72.1866 17.5125 72.6058 17.5125Z" fill="#FFB800"/>
</g>
<defs>
<filter id="filter0_d_708_5244" x="12.2211" y="3.54541" width="12.4612" height="20.5011" filterUnits="userSpaceOnUse" color-interpolation-filters="sRGB">
<feFlood flood-opacity="0" result="BackgroundImageFix"/>
<feColorMatrix in="SourceAlpha" type="matrix" values="0 0 0 0 0 0 0 0 0 0 0 0 0 0 0 0 0 0 127 0" result="hardAlpha"/>
<feOffset dy="2.45196"/>
<feGaussianBlur stdDeviation="0.751615"/>
<feComposite in2="hardAlpha" operator="out"/>
<feColorMatrix type="matrix" values="0 0 0 0 0 0 0 0 0 0 0 0 0 0 0 0 0 0 0.6 0"/>
<feBlend mode="normal" in2="BackgroundImageFix" result="effect1_dropShadow_708_5244"/>
<feBlend mode="normal" in="SourceGraphic" in2="effect1_dropShadow_708_5244" result="shape"/>
</filter>
<filter id="filter1_d_708_5244" x="5.13007" y="0" width="26.6433" height="27.5919" filterUnits="userSpaceOnUse" color-interpolation-filters="sRGB">
<feFlood flood-opacity="0" result="BackgroundImageFix"/>
<feColorMatrix in="SourceAlpha" type="matrix" values="0 0 0 0 0 0 0 0 0 0 0 0 0 0 0 0 0 0 127 0" result="hardAlpha"/>
<feOffset dy="2.45196"/>
<feGaussianBlur stdDeviation="0.751615"/>
<feComposite in2="hardAlpha" operator="out"/>
<feColorMatrix type="matrix" values="0 0 0 0 0 0 0 0 0 0 0 0 0 0 0 0 0 0 0.6 0"/>
<feBlend mode="normal" in2="BackgroundImageFix" result="effect1_dropShadow_708_5244"/>
<feBlend mode="normal" in="SourceGraphic" in2="effect1_dropShadow_708_5244" result="shape"/>
</filter>
<filter id="filter2_d_708_5244" x="32.1788" y="4.57861" width="46.1647" height="19.6144" filterUnits="userSpaceOnUse" color-interpolation-filters="sRGB">
<feFlood flood-opacity="0" result="BackgroundImageFix"/>
<feColorMatrix in="SourceAlpha" type="matrix" values="0 0 0 0 0 0 0 0 0 0 0 0 0 0 0 0 0 0 127 0" result="hardAlpha"/>
<feOffset dy="2.45196"/>
<feGaussianBlur stdDeviation="0.751615"/>
<feComposite in2="hardAlpha" operator="out"/>
<feColorMatrix type="matrix" values="0 0 0 0 0 0 0 0 0 0 0 0 0 0 0 0 0 0 0.6 0"/>
<feBlend mode="normal" in2="BackgroundImageFix" result="effect1_dropShadow_708_5244"/>
<feBlend mode="normal" in="SourceGraphic" in2="effect1_dropShadow_708_5244" result="shape"/>
</filter>
</defs>
</svg>
