<svg width="82" height="27" viewBox="0 0 82 27" fill="none" xmlns="http://www.w3.org/2000/svg">
<g filter="url(#filter0_d_708_5332)">
<rect x="10.2336" y="2.24707" width="3.85671" height="23.3454" rx="1.39873" transform="rotate(-30 10.2336 2.24707)" fill="#00A3FF"/>
<path d="M11.0666 10.2479C10.3976 10.6341 9.54211 10.4049 9.15586 9.73593L7.92875 7.61051C7.5425 6.94151 7.77172 6.08605 8.44072 5.6998L16.6006 0.988723C16.9861 0.766111 17.4547 0.740356 17.8623 0.919365L20.6503 2.14362C21.6997 2.60444 21.7798 4.06259 20.7872 4.63566L11.0666 10.2479Z" fill="#00A3FF"/>
</g>
<g filter="url(#filter1_d_708_5332)">
<path d="M30.5421 17.6227V14.4783H27.3977V11.9628H30.5421V8.81848H33.0576V11.9628H36.2019V14.4783H33.0576V17.6227H30.5421ZM44.3045 19.7189C43.7735 19.7189 43.2774 19.7049 42.8162 19.677C42.369 19.649 41.9497 19.6071 41.5584 19.5512L38.0787 18.3773L39.1268 14.4154L43.8853 15.5684C44.5561 15.5684 45.0452 15.4566 45.3526 15.233C45.6601 14.9954 45.8138 14.66 45.8138 14.2268C45.8138 13.9333 45.6531 13.6748 45.3317 13.4512C45.0242 13.2136 44.4792 13.0948 43.6966 13.0948L38.9172 13.0948V4.66794H49.9224V8.21057L44.6818 8.00095H43.8014V9.59409H45.2059C47.1484 9.59409 48.5599 10.0063 49.4403 10.8309C50.3207 11.6554 50.7609 12.8502 50.7609 14.4154C50.7609 16.0645 50.2159 17.3641 49.1258 18.3144C48.0358 19.2507 46.4287 19.7189 44.3045 19.7189ZM57.0981 11.6065C56.1198 11.6065 55.3163 11.4458 54.6874 11.1243C54.0585 10.7889 53.5974 10.3487 53.3039 9.80371C53.0104 9.24472 52.8637 8.62283 52.8637 7.93806C52.8637 7.25329 53.0104 6.6384 53.3039 6.09338C53.5974 5.53438 54.0585 5.09417 54.6874 4.77275C55.3163 4.43735 56.1198 4.26965 57.0981 4.26965C58.0624 4.26965 58.8589 4.43735 59.4878 4.77275C60.1167 5.09417 60.5778 5.53438 60.8713 6.09338C61.1788 6.6384 61.3325 7.25329 61.3325 7.93806C61.3325 8.62283 61.1788 9.24472 60.8713 9.80371C60.5778 10.3487 60.1167 10.7889 59.4878 11.1243C58.8589 11.4458 58.0624 11.6065 57.0981 11.6065ZM54.373 19.5093V18.2515L61.4792 10.768L64.5188 4.6889L69.2562 4.6889V5.94664L62.5902 12.8433L59.1105 19.5093L54.373 19.5093ZM57.0981 8.88137C57.5034 8.88137 57.7549 8.76957 57.8527 8.54597C57.9645 8.32237 58.0204 8.11974 58.0204 7.93806C58.0204 7.75639 57.9645 7.55375 57.8527 7.33016C57.7549 7.10656 57.5034 6.99476 57.0981 6.99476C56.6788 6.99476 56.4203 7.10656 56.3225 7.33016C56.2247 7.55375 56.1757 7.75639 56.1757 7.93806C56.1757 8.11974 56.2247 8.32237 56.3225 8.54597C56.4203 8.76957 56.6788 8.88137 57.0981 8.88137ZM66.3215 19.9285C65.3433 19.9285 64.5397 19.7678 63.9108 19.4464C63.282 19.111 62.8208 18.6638 62.5273 18.1048C62.2339 17.5458 62.0871 16.9309 62.0871 16.2601C62.0871 15.5753 62.2339 14.9604 62.5273 14.4154C62.8208 13.8564 63.282 13.4162 63.9108 13.0948C64.5397 12.7594 65.3433 12.5917 66.3215 12.5917C67.2858 12.5917 68.0824 12.7594 68.7112 13.0948C69.3401 13.4162 69.8013 13.8564 70.0947 14.4154C70.4022 14.9604 70.5559 15.5753 70.5559 16.2601C70.5559 16.9309 70.4022 17.5458 70.0947 18.1048C69.8013 18.6638 69.3401 19.111 68.7112 19.4464C68.0824 19.7678 67.2858 19.9285 66.3215 19.9285ZM66.3215 17.2034C66.7268 17.2034 66.9783 17.0916 67.0762 16.868C67.188 16.6444 67.2439 16.4418 67.2439 16.2601C67.2439 16.0784 67.188 15.8758 67.0762 15.6522C66.9783 15.4286 66.7268 15.3168 66.3215 15.3168C65.9023 15.3168 65.6437 15.4286 65.5459 15.6522C65.4481 15.8758 65.3992 16.0784 65.3992 16.2601C65.3992 16.4418 65.4481 16.6444 65.5459 16.868C65.6437 17.0916 65.9023 17.2034 66.3215 17.2034Z" fill="#00A3FF"/>
</g>
<defs>
<filter id="filter0_d_708_5332" x="6.23798" y="0.80127" width="19.9999" height="25.107" filterUnits="userSpaceOnUse" color-interpolation-filters="sRGB">
<feFlood flood-opacity="0" result="BackgroundImageFix"/>
<feColorMatrix in="SourceAlpha" type="matrix" values="0 0 0 0 0 0 0 0 0 0 0 0 0 0 0 0 0 0 127 0" result="hardAlpha"/>
<feOffset dy="2.45196"/>
<feGaussianBlur stdDeviation="0.751615"/>
<feComposite in2="hardAlpha" operator="out"/>
<feColorMatrix type="matrix" values="0 0 0 0 0 0 0 0 0 0 0 0 0 0 0 0 0 0 0.6 0"/>
<feBlend mode="normal" in2="BackgroundImageFix" result="effect1_dropShadow_708_5332"/>
<feBlend mode="normal" in="SourceGraphic" in2="effect1_dropShadow_708_5332" result="shape"/>
</filter>
<filter id="filter1_d_708_5332" x="25.8945" y="4.26953" width="46.1647" height="19.6144" filterUnits="userSpaceOnUse" color-interpolation-filters="sRGB">
<feFlood flood-opacity="0" result="BackgroundImageFix"/>
<feColorMatrix in="SourceAlpha" type="matrix" values="0 0 0 0 0 0 0 0 0 0 0 0 0 0 0 0 0 0 127 0" result="hardAlpha"/>
<feOffset dy="2.45196"/>
<feGaussianBlur stdDeviation="0.751615"/>
<feComposite in2="hardAlpha" operator="out"/>
<feColorMatrix type="matrix" values="0 0 0 0 0 0 0 0 0 0 0 0 0 0 0 0 0 0 0.6 0"/>
<feBlend mode="normal" in2="BackgroundImageFix" result="effect1_dropShadow_708_5332"/>
<feBlend mode="normal" in="SourceGraphic" in2="effect1_dropShadow_708_5332" result="shape"/>
</filter>
</defs>
</svg>
