<svg width="91" height="26" viewBox="0 0 91 26" fill="none" xmlns="http://www.w3.org/2000/svg">
<g filter="url(#filter0_d_708_5325)">
<path d="M2.27049 21.749L6.08564 14.2235L2.48011 8.16543V6.90769H7.74166L9.8379 12.1692H10.2571L12.3324 6.90769H17.7826L13.9465 14.2864L17.573 20.4913V21.749H12.4163L10.2571 16.739H9.8379L7.57396 21.749H2.27049ZM19.7642 21.749V10.2826L19.345 8.16543L19.7642 6.90769H27.3107C28.4426 6.90769 29.4139 7.08936 30.2244 7.45271C31.035 7.81605 31.6569 8.403 32.0901 9.21354C32.5233 10.0101 32.7399 11.0652 32.7399 12.3789C32.7399 14.3493 32.2089 15.7678 31.1468 16.6342C30.0987 17.4867 28.6103 17.9129 26.6818 17.9129H24.3759V18.3741L24.5856 20.4703L24.3759 21.749H19.7642ZM24.3759 13.993H25.5917C26.0809 13.993 26.5001 13.972 26.8495 13.9301C27.2128 13.8881 27.4923 13.7624 27.688 13.5527C27.8836 13.3291 27.9815 12.9728 27.9815 12.4837C27.9815 11.9666 27.8766 11.5963 27.667 11.3727C27.4574 11.1491 27.1639 11.0163 26.7866 10.9744C26.4233 10.9185 25.997 10.8905 25.5079 10.8905H24.1663L24.3759 13.993Z" fill="#23FF39"/>
</g>
<g filter="url(#filter1_d_708_5325)">
<path d="M39.2402 18.5524V15.408H36.0958V12.8925H39.2402V9.74817H41.7557V12.8925H44.9V15.408H41.7557V18.5524H39.2402ZM49.0827 20.439V10.398H46.5672V6.43612L53.7782 5.59763L53.9879 6.85537L53.7782 8.9516V20.439H49.0827ZM62.5685 20.6486C61.6741 20.6486 60.8356 20.5158 60.053 20.2503C59.2704 19.9708 58.5787 19.5376 57.9777 18.9506C57.3908 18.3497 56.9296 17.5671 56.5942 16.6029C56.2588 15.6246 56.0911 14.4298 56.0911 13.0183C56.0911 11.6208 56.2588 10.4399 56.5942 9.47566C56.9296 8.49742 57.3908 7.70783 57.9777 7.10691C58.5787 6.50599 59.2704 6.07277 60.053 5.80725C60.8356 5.52775 61.6741 5.388 62.5685 5.388C63.7564 5.388 64.8324 5.63955 65.7967 6.14265C66.7749 6.64574 67.5505 7.45629 68.1235 8.57428C68.7105 9.6783 69.0039 11.1596 69.0039 13.0183C69.0039 14.877 68.7105 16.3653 68.1235 17.4833C67.5505 18.6013 66.7749 19.4118 65.7967 19.9149C64.8324 20.404 63.7564 20.6486 62.5685 20.6486ZM62.5685 16.1417C63.1834 16.1417 63.6096 15.9181 63.8472 15.4709C64.0848 15.0237 64.2036 14.2062 64.2036 13.0183C64.2036 11.8444 64.0848 11.0339 63.8472 10.5867C63.6096 10.1255 63.1834 9.89491 62.5685 9.89491C61.9676 9.89491 61.5344 10.1255 61.2688 10.5867C61.0173 11.0478 60.8915 11.8584 60.8915 13.0183C60.8915 14.1922 61.0173 15.0097 61.2688 15.4709C61.5344 15.9181 61.9676 16.1417 62.5685 16.1417ZM75.131 12.5362C74.1528 12.5362 73.3492 12.3755 72.7203 12.054C72.0915 11.7186 71.6303 11.2784 71.3368 10.7334C71.0433 10.1744 70.8966 9.55252 70.8966 8.86775C70.8966 8.18298 71.0433 7.56809 71.3368 7.02307C71.6303 6.46407 72.0915 6.02386 72.7203 5.70244C73.3492 5.36704 74.1528 5.19934 75.131 5.19934C76.0953 5.19934 76.8918 5.36704 77.5207 5.70244C78.1496 6.02386 78.6107 6.46407 78.9042 7.02307C79.2117 7.56809 79.3654 8.18298 79.3654 8.86775C79.3654 9.55252 79.2117 10.1744 78.9042 10.7334C78.6107 11.2784 78.1496 11.7186 77.5207 12.054C76.8918 12.3755 76.0953 12.5362 75.131 12.5362ZM72.4059 20.439V19.1812L79.5121 11.6977L82.5517 5.61859H87.2892V6.87633L80.6231 13.7729L77.1434 20.439H72.4059ZM75.131 9.81106C75.5363 9.81106 75.7878 9.69926 75.8856 9.47566C75.9974 9.25206 76.0533 9.04942 76.0533 8.86775C76.0533 8.68608 75.9974 8.48344 75.8856 8.25984C75.7878 8.03625 75.5363 7.92445 75.131 7.92445C74.7118 7.92445 74.4532 8.03625 74.3554 8.25984C74.2576 8.48344 74.2087 8.68608 74.2087 8.86775C74.2087 9.04942 74.2576 9.25206 74.3554 9.47566C74.4532 9.69926 74.7118 9.81106 75.131 9.81106ZM84.3544 20.8582C83.3762 20.8582 82.5726 20.6975 81.9438 20.3761C81.3149 20.0407 80.8537 19.5935 80.5602 19.0345C80.2668 18.4755 80.12 17.8606 80.12 17.1898C80.12 16.505 80.2668 15.8901 80.5602 15.3451C80.8537 14.7861 81.3149 14.3459 81.9438 14.0245C82.5726 13.6891 83.3762 13.5214 84.3544 13.5214C85.3187 13.5214 86.1153 13.6891 86.7441 14.0245C87.373 14.3459 87.8342 14.7861 88.1277 15.3451C88.4351 15.8901 88.5888 16.505 88.5888 17.1898C88.5888 17.8606 88.4351 18.4755 88.1277 19.0345C87.8342 19.5935 87.373 20.0407 86.7441 20.3761C86.1153 20.6975 85.3187 20.8582 84.3544 20.8582ZM84.3544 18.1331C84.7597 18.1331 85.0112 18.0213 85.1091 17.7977C85.2209 17.5741 85.2768 17.3715 85.2768 17.1898C85.2768 17.0081 85.2209 16.8055 85.1091 16.5819C85.0112 16.3583 84.7597 16.2465 84.3544 16.2465C83.9352 16.2465 83.6766 16.3583 83.5788 16.5819C83.481 16.8055 83.4321 17.0081 83.4321 17.1898C83.4321 17.3715 83.481 17.5741 83.5788 17.7977C83.6766 18.0213 83.9352 18.1331 84.3544 18.1331Z" fill="#23FF39"/>
</g>
<defs>
<filter id="filter0_d_708_5325" x="0.767277" y="6.90771" width="33.4758" height="18.7965" filterUnits="userSpaceOnUse" color-interpolation-filters="sRGB">
<feFlood flood-opacity="0" result="BackgroundImageFix"/>
<feColorMatrix in="SourceAlpha" type="matrix" values="0 0 0 0 0 0 0 0 0 0 0 0 0 0 0 0 0 0 127 0" result="hardAlpha"/>
<feOffset dy="2.45196"/>
<feGaussianBlur stdDeviation="0.751615"/>
<feComposite in2="hardAlpha" operator="out"/>
<feColorMatrix type="matrix" values="0 0 0 0 0 0 0 0 0 0 0 0 0 0 0 0 0 0 0.6 0"/>
<feBlend mode="normal" in2="BackgroundImageFix" result="effect1_dropShadow_708_5325"/>
<feBlend mode="normal" in="SourceGraphic" in2="effect1_dropShadow_708_5325" result="shape"/>
</filter>
<filter id="filter1_d_708_5325" x="34.5926" y="5.19922" width="55.4995" height="19.6144" filterUnits="userSpaceOnUse" color-interpolation-filters="sRGB">
<feFlood flood-opacity="0" result="BackgroundImageFix"/>
<feColorMatrix in="SourceAlpha" type="matrix" values="0 0 0 0 0 0 0 0 0 0 0 0 0 0 0 0 0 0 127 0" result="hardAlpha"/>
<feOffset dy="2.45196"/>
<feGaussianBlur stdDeviation="0.751615"/>
<feComposite in2="hardAlpha" operator="out"/>
<feColorMatrix type="matrix" values="0 0 0 0 0 0 0 0 0 0 0 0 0 0 0 0 0 0 0.6 0"/>
<feBlend mode="normal" in2="BackgroundImageFix" result="effect1_dropShadow_708_5325"/>
<feBlend mode="normal" in="SourceGraphic" in2="effect1_dropShadow_708_5325" result="shape"/>
</filter>
</defs>
</svg>
